<svg width="35" height="35" viewBox="0 0 35 35" fill="none" xmlns="http://www.w3.org/2000/svg">
<path d="M27.7083 4.73959H9.84374C8.90622 4.71208 7.99603 5.05735 7.31264 5.69975C6.62924 6.34214 6.22838 7.22925 6.19791 8.16668V26.25C6.23595 27.3499 6.70871 28.3899 7.51248 29.1417C8.31625 29.8935 9.38539 30.2958 10.4854 30.2604H27.7083C27.9972 30.2567 28.2732 30.1402 28.4775 29.9359C28.6818 29.7316 28.7983 29.4556 28.8021 29.1667V5.83334C28.7983 5.54444 28.6818 5.26843 28.4775 5.06412C28.2732 4.85982 27.9972 4.74337 27.7083 4.73959ZM26.6146 28.0729H10.4854C9.96535 28.109 9.4522 27.9374 9.05852 27.5956C8.66484 27.2539 8.42277 26.77 8.38541 26.25C8.42277 25.73 8.66484 25.2461 9.05852 24.9044C9.4522 24.5626 9.96535 24.391 10.4854 24.4271H26.6146V28.0729ZM26.6146 22.2396H10.4854C9.75122 22.2404 9.02904 22.426 8.38541 22.7792V8.16668C8.41881 7.81068 8.58999 7.48182 8.86243 7.25024C9.13487 7.01867 9.48701 6.90271 9.84374 6.92709H26.6146V22.2396Z" fill="white"/>
<path d="M12.7604 12.7604H22.2396C22.5297 12.7604 22.8079 12.6452 23.013 12.4401C23.2181 12.235 23.3333 11.9568 23.3333 11.6667C23.3333 11.3766 23.2181 11.0984 23.013 10.8933C22.8079 10.6882 22.5297 10.5729 22.2396 10.5729H12.7604C12.4703 10.5729 12.1921 10.6882 11.987 10.8933C11.7819 11.0984 11.6667 11.3766 11.6667 11.6667C11.6667 11.9568 11.7819 12.235 11.987 12.4401C12.1921 12.6452 12.4703 12.7604 12.7604 12.7604Z" fill="white"/>
<path d="M12.7604 17.8646H22.2396C22.5297 17.8646 22.8079 17.7494 23.013 17.5442C23.2181 17.3391 23.3333 17.0609 23.3333 16.7708C23.3333 16.4808 23.2181 16.2026 23.013 15.9974C22.8079 15.7923 22.5297 15.6771 22.2396 15.6771H12.7604C12.4703 15.6771 12.1921 15.7923 11.987 15.9974C11.7819 16.2026 11.6667 16.4808 11.6667 16.7708C11.6667 17.0609 11.7819 17.3391 11.987 17.5442C12.1921 17.7494 12.4703 17.8646 12.7604 17.8646Z" fill="white"/>
</svg>
