<svg width="35" height="35" viewBox="0 0 35 35" fill="none" xmlns="http://www.w3.org/2000/svg">
<path d="M28.1458 8.3271C27.4765 7.65043 26.6792 7.11369 25.8004 6.74816C24.9216 6.38262 23.9789 6.19558 23.0271 6.19793C22.0753 6.19558 21.1326 6.38262 20.2538 6.74816C19.375 7.11369 18.5777 7.65043 17.9083 8.3271L17.5 8.75001L17.0917 8.34168C15.7379 6.98806 13.9019 6.22762 11.9875 6.22762C10.0731 6.22762 8.23709 6.98806 6.88333 8.34168C5.5473 9.7047 4.79896 11.5372 4.79896 13.4458C4.79896 15.3545 5.5473 17.187 6.88333 18.55L16.7562 28.4521C16.9613 28.6569 17.2393 28.772 17.5292 28.772C17.819 28.772 18.097 28.6569 18.3021 28.4521L28.175 18.55C29.5115 17.1825 30.2574 15.3447 30.252 13.4326C30.2465 11.5204 29.4901 9.68694 28.1458 8.3271Z" fill="white"/>
</svg>
