<svg width="35" height="35" viewBox="0 0 35 35" fill="none" xmlns="http://www.w3.org/2000/svg">
<path d="M6.19791 25.2437C6.02135 25.2468 5.84668 25.207 5.68882 25.1279C5.53097 25.0487 5.39462 24.9326 5.29144 24.7892C5.18826 24.6459 5.12131 24.4798 5.09632 24.305C5.07132 24.1302 5.08903 23.9519 5.14791 23.7854L6.97083 17.7771C6.59804 16.7529 6.40082 15.6732 6.3875 14.5833C6.38462 13.3254 6.63767 12.08 7.13125 10.9229C7.72959 9.49789 8.66832 8.24136 9.86516 7.26346C11.062 6.28556 12.4804 5.61614 13.9961 5.31387C15.5118 5.01159 17.0785 5.08568 18.559 5.52966C20.0394 5.97363 21.3883 6.77393 22.4875 7.86042C23.3405 8.727 24.0231 9.74605 24.5 10.8646C24.9845 12.019 25.2341 13.2584 25.2341 14.5104C25.2341 15.7624 24.9845 17.0018 24.5 18.1562C24.0231 19.2748 23.3405 20.2938 22.4875 21.1604C21.2087 22.4369 19.5908 23.3201 17.8254 23.7052C16.0601 24.0903 14.2213 23.9613 12.5271 23.3333L6.51875 25.2C6.41425 25.2289 6.30634 25.2436 6.19791 25.2437ZM15.8083 7.29167C14.8413 7.28885 13.8838 7.48234 12.9937 7.86042C11.2695 8.58808 9.89107 9.95086 9.14375 11.6667C8.76873 12.5602 8.57558 13.5195 8.57558 14.4885C8.57558 15.4576 8.76873 16.4169 9.14375 17.3104C9.23063 17.5507 9.23063 17.8139 9.14375 18.0542L7.80208 22.4292L12.1771 21.0875C12.4174 21.0006 12.6805 21.0006 12.9208 21.0875C14.6916 21.8229 16.6809 21.8312 18.4577 21.1107C20.2346 20.3901 21.6562 18.9986 22.4146 17.2375C22.8413 16.1467 22.999 14.9691 22.8742 13.8044C22.7495 12.6398 22.346 11.5223 21.6979 10.5466C21.0498 9.5709 20.1762 8.76568 19.1511 8.19911C18.1259 7.63253 16.9793 7.32127 15.8083 7.29167Z" fill="white"/>
<path d="M28.8021 29.8958C28.6956 29.9101 28.5877 29.9101 28.4812 29.8958L22.4729 28.0729C20.2156 28.9252 17.7165 28.8732 15.4966 27.9277C13.2768 26.9821 11.5077 25.2161 10.5583 22.9979C10.4934 22.8667 10.4563 22.7234 10.4493 22.5772C10.4423 22.4309 10.4655 22.2848 10.5175 22.1479C10.5695 22.0111 10.6492 21.8864 10.7516 21.7817C10.8539 21.677 10.9768 21.5946 11.1125 21.5396C11.2444 21.4789 11.3871 21.4452 11.5323 21.4402C11.6774 21.4353 11.8221 21.4594 11.9578 21.5109C12.0936 21.5625 12.2177 21.6406 12.323 21.7407C12.4282 21.8408 12.5125 21.9608 12.5708 22.0937C12.9175 22.9199 13.4116 23.6759 14.0292 24.325C15.0517 25.3363 16.3504 26.0226 17.762 26.2977C19.1737 26.5728 20.6351 26.4242 21.9625 25.8708C22.2028 25.784 22.4659 25.784 22.7062 25.8708L27.0812 27.2125L25.7396 22.8375C25.6527 22.5972 25.6527 22.3341 25.7396 22.0937C26.1177 21.2037 26.3111 20.2462 26.3083 19.2792C26.3118 18.3285 26.1267 17.3866 25.7637 16.508C25.4007 15.6294 24.8671 14.8315 24.1937 14.1604C23.8987 13.7876 23.5718 13.4411 23.2167 13.125C23.0892 13.0485 22.9786 12.9468 22.8917 12.8261C22.8048 12.7054 22.7435 12.5683 22.7114 12.4231C22.6793 12.2779 22.6772 12.1277 22.7051 11.9817C22.733 11.8356 22.7905 11.6968 22.8738 11.5737C22.9572 11.4506 23.0649 11.3458 23.1901 11.2657C23.3154 11.1855 23.4557 11.1318 23.6024 11.1078C23.7492 11.0837 23.8993 11.0898 24.0436 11.1257C24.1879 11.1617 24.3233 11.2266 24.4417 11.3167C24.9633 11.6534 25.4517 12.0392 25.9 12.4688C26.7577 13.3315 27.441 14.3515 27.9125 15.4729C28.4072 16.6348 28.6603 17.8851 28.6562 19.1479C28.6532 20.2672 28.4558 21.3774 28.0729 22.4292L29.8958 28.4375C29.9547 28.604 29.9724 28.7822 29.9474 28.9571C29.9224 29.1319 29.8555 29.298 29.7523 29.4413C29.6491 29.5846 29.5128 29.7008 29.3549 29.78C29.1971 29.8591 29.0224 29.8989 28.8458 29.8958H28.8021Z" fill="white"/>
</svg>
