<svg width="35" height="35" viewBox="0 0 35 35" fill="none" xmlns="http://www.w3.org/2000/svg">
<path d="M17.5 4.375C14.9041 4.375 12.3665 5.14477 10.2081 6.58696C8.04975 8.02916 6.36749 10.079 5.37409 12.4773C4.38069 14.8756 4.12077 17.5146 4.6272 20.0606C5.13363 22.6066 6.38366 24.9452 8.21923 26.7808C10.0548 28.6163 12.3934 29.8664 14.9394 30.3728C17.4854 30.8792 20.1244 30.6193 22.5227 29.6259C24.921 28.6325 26.9709 26.9503 28.413 24.7919C29.8552 22.6335 30.625 20.0959 30.625 17.5C30.625 14.019 29.2422 10.6806 26.7808 8.21922C24.3194 5.75781 20.981 4.375 17.5 4.375ZM28.3792 16.4062H24.3542C23.8448 12.8931 22.3592 9.59363 20.0667 6.88333C22.2655 7.41896 24.2447 8.62173 25.733 10.3267C27.2212 12.0316 28.1455 14.1552 28.3792 16.4062ZM12.8479 18.5937H22.1521C21.4785 22.0483 19.8693 25.2515 17.5 27.8542C15.1307 25.2515 13.5215 22.0483 12.8479 18.5937ZM12.8479 16.4062C13.5215 12.9517 15.1307 9.74849 17.5 7.14583C19.8693 9.74849 21.4785 12.9517 22.1521 16.4062H12.8479ZM14.9333 6.88333C12.6408 9.59363 11.1553 12.8931 10.6458 16.4062H6.62084C6.85448 14.1552 7.7788 12.0316 9.26704 10.3267C10.7553 8.62173 12.7345 7.41896 14.9333 6.88333ZM6.62084 18.55H10.6458C11.1553 22.0631 12.6408 25.3626 14.9333 28.0729C12.741 27.5399 10.7664 26.3436 9.27876 24.6473C7.79117 22.9509 6.86301 20.837 6.62084 18.5937V18.55ZM20.0667 28.0729C22.3592 25.3626 23.8448 22.0631 24.3542 18.55H28.3792C28.1541 20.8088 27.2336 22.9421 25.7448 24.6557C24.2559 26.3692 22.272 27.5785 20.0667 28.1167V28.0729Z" fill="white"/>
</svg>
