<svg width="35" height="35" viewBox="0 0 35 35" fill="none" xmlns="http://www.w3.org/2000/svg">
<path d="M20.4167 17.8646C19.3351 17.8646 18.2777 17.5438 17.3784 16.9429C16.4791 16.342 15.7781 15.4879 15.3642 14.4886C14.9503 13.4894 14.842 12.3898 15.053 11.3289C15.264 10.2681 15.7849 9.29366 16.5497 8.52884C17.3145 7.76403 18.289 7.24318 19.3498 7.03217C20.4106 6.82115 21.5102 6.92945 22.5095 7.34337C23.5088 7.75729 24.3629 8.45823 24.9638 9.35756C25.5647 10.2569 25.8854 11.3142 25.8854 12.3958C25.8854 13.8462 25.3093 15.2372 24.2837 16.2628C23.2581 17.2884 21.8671 17.8646 20.4167 17.8646ZM20.4167 9.11458C19.7677 9.11458 19.1333 9.30703 18.5937 9.66757C18.0541 10.0281 17.6336 10.5406 17.3852 11.1402C17.1369 11.7397 17.0719 12.3995 17.1985 13.036C17.3251 13.6725 17.6376 14.2571 18.0965 14.716C18.5554 15.1749 19.14 15.4874 19.7765 15.614C20.413 15.7406 21.0728 15.6757 21.6724 15.4273C22.2719 15.179 22.7844 14.7584 23.1449 14.2188C23.5055 13.6792 23.6979 13.0448 23.6979 12.3958C23.6979 11.5256 23.3522 10.691 22.7369 10.0756C22.1215 9.46029 21.2869 9.11458 20.4167 9.11458Z" fill="white"/>
<path d="M30.625 28.0729C30.3361 28.0691 30.0601 27.9527 29.8558 27.7484C29.6515 27.5441 29.535 27.2681 29.5312 26.9792C29.5312 24.1354 27.9854 22.2396 20.4166 22.2396C12.8479 22.2396 11.3021 24.1354 11.3021 26.9792C11.3021 27.2693 11.1868 27.5475 10.9817 27.7526C10.7766 27.9577 10.4984 28.0729 10.2083 28.0729C9.91823 28.0729 9.64003 27.9577 9.43491 27.7526C9.2298 27.5475 9.11456 27.2693 9.11456 26.9792C9.11456 20.0521 17.0333 20.0521 20.4166 20.0521C23.8 20.0521 31.7187 20.0521 31.7187 26.9792C31.715 27.2681 31.5985 27.5441 31.3942 27.7484C31.1899 27.9527 30.9139 28.0691 30.625 28.0729Z" fill="white"/>
<path d="M12.1333 19.0458H11.6666C10.5063 18.9337 9.43808 18.3652 8.69692 17.4654C7.95576 16.5656 7.60239 15.4082 7.71456 14.2479C7.82672 13.0876 8.39523 12.0194 9.29501 11.2782C10.1948 10.537 11.3522 10.1837 12.5125 10.2958C12.6613 10.3022 12.8072 10.3389 12.9413 10.4037C13.0753 10.4685 13.1948 10.56 13.2923 10.6725C13.3898 10.7851 13.4633 10.9164 13.5082 11.0583C13.5532 11.2003 13.5687 11.35 13.5538 11.4981C13.5388 11.6463 13.4938 11.7899 13.4215 11.92C13.3491 12.0502 13.2509 12.1642 13.133 12.2551C13.015 12.3459 12.8797 12.4118 12.7354 12.4485C12.5911 12.4853 12.4408 12.4921 12.2937 12.4688C12.009 12.4404 11.7216 12.4696 11.4485 12.5548C11.1753 12.64 10.9222 12.7794 10.7041 12.9646C10.4827 13.1432 10.299 13.3642 10.1638 13.6146C10.0286 13.8649 9.94455 14.1397 9.91664 14.4229C9.88649 14.7097 9.91369 14.9995 9.99668 15.2756C10.0797 15.5517 10.2168 15.8086 10.4 16.0312C10.5832 16.2538 10.8089 16.4377 11.064 16.5722C11.319 16.7067 11.5982 16.7891 11.8854 16.8146C12.3601 16.8552 12.8354 16.7428 13.2416 16.4938C13.4892 16.341 13.7873 16.2928 14.0703 16.3598C14.3534 16.4268 14.5982 16.6035 14.751 16.851C14.9038 17.0986 14.952 17.3967 14.885 17.6797C14.818 17.9628 14.6413 18.2076 14.3937 18.3604C13.7173 18.7918 12.9354 19.0289 12.1333 19.0458Z" fill="white"/>
<path d="M4.375 26.9792C4.08609 26.9754 3.81008 26.8589 3.60578 26.6546C3.40147 26.4503 3.28503 26.1743 3.28125 25.8854C3.28125 21.9479 4.33125 19.3229 9.47917 19.3229C9.76925 19.3229 10.0474 19.4382 10.2526 19.6433C10.4577 19.8484 10.5729 20.1266 10.5729 20.4167C10.5729 20.7068 10.4577 20.985 10.2526 21.1901C10.0474 21.3952 9.76925 21.5104 9.47917 21.5104C6.05208 21.5104 5.46875 22.6042 5.46875 25.8854C5.46497 26.1743 5.34853 26.4503 5.14422 26.6546C4.93992 26.8589 4.66391 26.9754 4.375 26.9792Z" fill="white"/>
</svg>
