<svg width="40" height="40" viewBox="0 0 40 40" fill="none" xmlns="http://www.w3.org/2000/svg">
<path d="M20.1167 7.08333C20.1167 7.08333 20 7.08333 19.9333 7.08333C13.6167 7.08333 8.11668 11.7333 7.11668 17.9833C6.98334 18.8167 7.21668 19.6833 7.78334 20.3333C8.33334 20.9833 9.11667 21.35 9.95001 21.35H10.05C12.95 21.35 15.1333 22.0667 16.5333 23.4667C17.95 24.8833 18.65 27.1 18.6333 30.05C18.6333 30.8833 19 31.6667 19.6333 32.2167C20.1667 32.6833 20.85 32.9333 21.5333 32.9167C21.6833 32.9167 21.8333 32.9167 21.9833 32.8833C28.3 31.8667 32.9833 26.2833 32.9 19.8833C32.8 12.9333 27.0667 7.18333 20.1 7.08333H20.1167ZM21.6 30.4167C21.5 30.4167 21.3667 30.4 21.2667 30.3167C21.2167 30.2667 21.1333 30.1833 21.1333 30.0667C21.15 26.4167 20.2 23.6 18.3 21.7C16.4167 19.8167 13.6333 18.85 10.05 18.85H9.95001C9.81667 18.85 9.73334 18.7667 9.68334 18.7167C9.65001 18.6667 9.55001 18.55 9.58334 18.3833C10.4 13.35 14.8333 9.58333 19.9333 9.58333C19.9833 9.58333 20.0333 9.58333 20.0833 9.58333C25.6 9.66667 30.3333 14.3833 30.4167 19.9167C30.4833 25.0833 26.7 29.6 21.6167 30.4167H21.6ZM16.5667 15.0333C16.5667 15.95 15.8167 16.7167 14.8833 16.7167C13.95 16.7167 13.2 15.9667 13.2 15.0333C13.2 14.1 13.95 13.35 14.8833 13.35C15.8167 13.35 16.5667 14.1 16.5667 15.0333ZM21.6 12.9333C21.6 13.85 20.85 14.6167 19.9167 14.6167C18.9833 14.6167 18.2333 13.8667 18.2333 12.9333C18.2333 12 18.9833 11.25 19.9167 11.25C20.85 11.25 21.6 12 21.6 12.9333ZM23.2833 15.0333C23.2833 14.1167 24.0333 13.35 24.9667 13.35C25.9 13.35 26.65 14.1 26.65 15.0333C26.65 15.9667 25.9 16.7167 24.9667 16.7167C24.0333 16.7167 23.2833 15.9667 23.2833 15.0333ZM28.7333 20.0667C28.7333 20.9833 27.9833 21.75 27.05 21.75C26.1167 21.75 25.3667 21 25.3667 20.0667C25.3667 19.1333 26.1167 18.3833 27.05 18.3833C27.9833 18.3833 28.7333 19.1333 28.7333 20.0667ZM26.6333 25.1C26.6333 26.0167 25.8833 26.7833 24.95 26.7833C24.0167 26.7833 23.2667 26.0333 23.2667 25.1C23.2667 24.1667 24.0167 23.4167 24.95 23.4167C25.8833 23.4167 26.6333 24.1667 26.6333 25.1Z" fill="white"/>
</svg>
